# xmcd
#
# Track frame offsets:
#	150
#	18625
#	38252
#	54242
#	70950
#	86775
#	95490
#	105300
#	115050
#	128402
#	151375
#	168000
#	187750
#	201125
#	216225
#	232575
#	244800
#	257425
#	273325
#	287725
# Disc length: 3996 seconds
# Revision: 1
# Processed by: cddbd v1.5.1PL0 Copyright (c) Steve Scherf et al.
#
# Submitted via: libkcddb 0.10
#
DISCID=f90f9a14
DTITLE=Louis Armstrong - Satchmo - 20 Golden Greats
DYEAR=1900
DGENRE=
TTITLE0=Black and Blue
TTITLE1=I'm confessing that I love you
TTITLE2=Up the lazy river
TTITLE3=You Rascal you
TTITLE4=Ain't misbehavin'
TTITLE5=Struttin' with balance
TTITLE6=Dippermouth Blues
TTITLE7=Muskrat Ramble
TTITLE8=St. Louis Blues
TTITLE9=Rockin' chair 1
TTITLE10=Back O'Town Blues
TTITLE11=Basin Street Blues
TTITLE12=On the sunny side of the street
TTITLE13=Do you know what it means to Miss New Orleans
TTITLE14=Gotta right to sing the Blues
TTITLE15=When the Saints go marching in
TTITLE16=Swing that magic
TTITLE17=Stardust
TTITLE18=Some of these days
TTITLE19=Jeepers Creepers
EXTD=
EXTT0=
EXTT1=
EXTT2=
EXTT3=
EXTT4=
EXTT5=
EXTT6=
EXTT7=
EXTT8=
EXTT9=
EXTT10=
EXTT11=
EXTT12=
EXTT13=
EXTT14=
EXTT15=
EXTT16=
EXTT17=
EXTT18=
EXTT19=
PLAYORDER=
